<svg width="1440" height="1307" viewBox="0 0 1440 1307" fill="none" xmlns="http://www.w3.org/2000/svg">
<path fill-rule="evenodd" clip-rule="evenodd" d="M657.433 157.272L765.278 110.907V110.809L875.862 157.134H859.565V214.947H919.708V30.0185H971.702V44.1012H958.897V146.386C1012.83 40.7658 1074.14 29.6479 1074.14 29.6479V0H1287.93V30.0185C1378.73 71.5255 1395.03 218.653 1395.03 218.653H1408.22V196.417H1421.41V214.947H1440.81V239.407H1510.65V159.728H1499.79C1580.5 90.4261 1659.65 159.728 1659.65 159.728H1647.62V239.407H1707.38V35.2069H1696.51V18.9005H1752V239.407V405.805L765.278 420.629V421L-197 406.163V239.618V18.9172H-142.888V35.2379H-153.484V239.618H-95.2097V159.869H-106.94C-106.94 159.869 -29.7461 90.5057 48.9616 159.869H38.3664V239.618H106.479V215.137H125.399V196.59H138.265V218.846H151.13C151.13 218.846 167.023 71.5885 255.569 30.0449V0H464.069V29.674C464.069 29.674 523.857 40.8018 576.455 146.515V44.1401H563.967V30.0449H614.673V215.137H673.326V157.272H657.433Z" fill="#A092CD"/>
<path fill-rule="evenodd" clip-rule="evenodd" d="M606.466 279.871H686.277H768.084V359.106H857.658V263.363H840.599L823.928 221.544H871.228C931.323 149.89 1114.86 49.5735 1290.73 221.544H1337.25L1319.42 263.363H1305.07V359.106H1402.38V327.192H1389.2V301.147H1592.74V327.192H1580.72V359.106H1672.61V1307H686.277H-276V359.106H-186.354V327.192H-198.08V301.147H0.503174V327.192H-12.3574V359.106H82.5735V263.363H68.5782L51.1785 221.544H96.569C268.145 49.5735 447.208 149.89 505.837 221.544H551.984L535.719 263.363H519.076V359.106H606.466V279.871Z" fill="#6D65B2"/>
</svg>
