<svg width="39" height="38" viewBox="0 0 39 38" fill="none" xmlns="http://www.w3.org/2000/svg">
<path d="M18.5975 0.891365C18.9597 0.132243 20.0403 0.132244 20.4025 0.891366L25.4586 11.4872C25.6044 11.7927 25.8948 12.0037 26.2304 12.0479L37.87 13.5823C38.7039 13.6922 39.0378 14.7199 38.4278 15.2989L29.913 23.3818C29.6675 23.6149 29.5566 23.9563 29.6182 24.2892L31.7558 35.8332C31.909 36.6603 31.0348 37.2954 30.2955 36.8942L19.977 31.2939C19.6795 31.1324 19.3205 31.1324 19.023 31.2939L8.70448 36.8942C7.96523 37.2954 7.09104 36.6603 7.24418 35.8332L9.3818 24.2892C9.44343 23.9563 9.3325 23.6149 9.08699 23.3818L0.572188 15.2989C-0.0378432 14.7199 0.296069 13.6922 1.12997 13.5823L12.7696 12.0479C13.1052 12.0037 13.3956 11.7927 13.5414 11.4872L18.5975 0.891365Z" fill="#F4FFB4"/>
</svg>
