<svg width="1440" height="7484" viewBox="0 0 1440 7484" fill="none" xmlns="http://www.w3.org/2000/svg">
<path d="M146.5 7102C-59.5 7472.8 508.666 7471.67 792.499 7473C1479.5 7473 2362.5 6261 1246 6261C129.499 6261 215.499 5162 1160 5162C2104.5 5162 2410 3010.5 1091.5 3010.5C-227.001 3010.5 -695.001 1465 253.999 1465C1013.2 1465 1178.83 912 1157.5 598.5C1157.5 598.5 1022.3 20.6 687.5 11" stroke="white" stroke-width="21" stroke-linecap="round" stroke-dasharray="100 100"/>
<path d="M199.792 7045.78L212.545 7004.5L396.136 6938.76L191.691 6976.89L164.453 6944.67C159.098 6938.33 163.341 6928.61 171.628 6928.22L442.936 6915.66C447.655 6915.44 450.017 6921.28 446.473 6924.4L279.991 7071.05C275.818 7074.73 269.449 7074.29 265.814 7070.09L241.824 7042.32L205.88 7052.08C202.076 7053.12 198.629 7049.55 199.792 7045.78Z" fill="white"/>
</svg>
