<svg width="740" height="1099" viewBox="0 0 740 1099" fill="none" xmlns="http://www.w3.org/2000/svg">
<path fill-rule="evenodd" clip-rule="evenodd" d="M1048.72 779.438C1070.05 733.204 1085.15 683.502 1092.94 631.411C982.07 604.107 772.826 516.075 822.781 382.373C872.735 248.671 809.802 207.409 772.092 203.491C729.238 226.754 629.133 259.323 571.539 203.491C513.944 147.66 563.213 45.8078 595.047 1.86069C580.028 0.628341 564.837 0 549.5 0C365.698 0 202.974 90.2418 103.215 228.836C233.366 231.285 484.706 265.42 448.856 382.373C413.007 499.325 322.501 529.788 281.729 530.4C240.835 571.416 181.599 655.727 271.811 664.836C362.024 673.946 152.88 724.219 37.031 748.216C90.0791 884.926 196.254 995.135 330.214 1053.5C311.971 953.086 314.052 757.693 468.324 779.438C622.595 801.183 684.426 719.688 696.058 676.223C713.566 621.004 761.44 543.696 812.863 676.223C864.287 808.749 991.53 800.252 1048.72 779.438Z" fill="#6D65B2"/>
<path d="M330.214 1053.5C397.388 1082.77 471.549 1099 549.5 1099C770.886 1099 961.693 968.08 1048.72 779.438C991.53 800.252 864.287 808.749 812.863 676.223C761.44 543.696 713.566 621.004 696.058 676.223C684.426 719.688 622.595 801.183 468.324 779.438C314.052 757.693 311.971 953.086 330.214 1053.5Z" fill="#A092CD"/>
<path d="M1099 549.5C1099 261.357 877.219 25.0132 595.047 1.86069C563.213 45.8078 513.944 147.66 571.539 203.491C629.133 259.323 729.238 226.754 772.092 203.491C809.802 207.409 872.735 248.671 822.781 382.373C772.826 516.075 982.07 604.107 1092.94 631.411C1096.93 604.688 1099 577.336 1099 549.5Z" fill="#A092CD"/>
<path d="M103.215 228.836C38.2597 319.079 0 429.821 0 549.5C0 619.576 13.1175 686.589 37.031 748.216C152.88 724.219 362.024 673.946 271.811 664.836C181.599 655.727 240.835 571.416 281.729 530.4C322.501 529.788 413.007 499.325 448.856 382.373C484.706 265.42 233.366 231.285 103.215 228.836Z" fill="#A092CD"/>
</svg>
