<svg width="933" height="1212" viewBox="0 0 933 1212" fill="none" xmlns="http://www.w3.org/2000/svg">
<path fill-rule="evenodd" clip-rule="evenodd" d="M877.28 859.58C900.92 808.592 917.652 753.78 926.28 696.333C803.409 666.222 571.508 569.138 626.872 421.688C682.235 274.239 612.488 228.735 570.694 224.414C523.201 250.07 412.256 285.987 348.425 224.414C284.594 162.842 339.198 50.5177 374.479 2.05201C357.833 0.692948 340.998 0 324 0C120.296 0 -60.0484 99.5205 -170.609 252.365C-26.3647 255.066 252.19 292.711 212.459 421.688C172.727 550.666 72.4211 584.261 27.2346 584.936C-18.0876 630.17 -83.7369 723.149 16.2433 733.195C116.224 743.241 -115.567 798.683 -243.959 825.148C-185.167 975.915 -67.4951 1097.46 80.9699 1161.82C60.7513 1051.08 63.0582 835.599 234.034 859.58C405.01 883.561 473.536 793.687 486.427 745.753C505.832 684.856 558.888 599.6 615.88 745.753C672.872 891.906 813.894 882.535 877.28 859.58Z" fill="#6D65B2"/>
<path d="M80.9699 1161.82C155.418 1194.1 237.608 1212 324 1212C569.357 1212 780.825 1067.62 877.28 859.58C813.894 882.535 672.872 891.906 615.88 745.753C558.888 599.6 505.832 684.856 486.427 745.753C473.536 793.687 405.01 883.561 234.034 859.58C63.0582 835.599 60.7513 1051.08 80.9699 1161.82Z" fill="#A092CD"/>
<path d="M933 606C933 288.23 687.204 27.5851 374.479 2.05201C339.198 50.5177 284.594 162.842 348.425 224.414C412.256 285.987 523.201 250.07 570.694 224.414C612.488 228.735 682.235 274.239 626.872 421.688C571.508 569.138 803.409 666.222 926.28 696.333C930.706 666.862 933 636.698 933 606Z" fill="#A092CD"/>
<path d="M-170.609 252.365C-242.598 351.887 -285 474.016 -285 606C-285 683.282 -270.462 757.184 -243.959 825.148C-115.567 798.683 116.224 743.241 16.2433 733.195C-83.7369 723.149 -18.0876 630.17 27.2346 584.936C72.4211 584.261 172.727 550.666 212.459 421.688C252.19 292.711 -26.3647 255.066 -170.609 252.365Z" fill="#A092CD"/>
</svg>
