<svg width="1440" height="336" viewBox="0 0 1440 336" fill="none" xmlns="http://www.w3.org/2000/svg">
<ellipse cx="456.716" cy="143" rx="116.777" ry="83" fill="white"/>
<ellipse cx="604.446" cy="170" rx="116.777" ry="83" fill="white"/>
<ellipse cx="338.531" cy="184" rx="116.777" ry="83" fill="white"/>
<ellipse cx="266.777" cy="240" rx="116.777" ry="83" fill="white"/>
<ellipse cx="383.554" cy="253" rx="116.777" ry="83" fill="white"/>
<ellipse cx="556.61" cy="253" rx="116.777" ry="83" fill="white"/>
<ellipse cx="721.223" cy="217" rx="116.777" ry="83" fill="white"/>
<ellipse cx="1385.28" cy="133.859" rx="104.047" ry="65.8587" fill="white"/>
<ellipse cx="1516.91" cy="155.283" rx="104.047" ry="65.8587" fill="white"/>
<ellipse cx="1279.98" cy="166.391" rx="104.047" ry="65.8587" fill="white"/>
<ellipse cx="1216.05" cy="210.826" rx="104.047" ry="65.8587" fill="white"/>
<ellipse cx="1320.09" cy="221.141" rx="104.047" ry="65.8587" fill="white"/>
<ellipse cx="1474.28" cy="221.141" rx="104.047" ry="65.8587" fill="white"/>
<ellipse cx="912.112" cy="182.054" rx="110.836" ry="64.0543" fill="white"/>
<ellipse cx="1052.33" cy="202.891" rx="110.836" ry="64.0543" fill="white"/>
<ellipse cx="799.941" cy="213.696" rx="110.836" ry="64.0544" fill="white"/>
<ellipse cx="731.836" cy="256.913" rx="110.836" ry="64.0544" fill="white"/>
<ellipse cx="842.673" cy="266.946" rx="110.836" ry="64.0544" fill="white"/>
<ellipse cx="1006.92" cy="266.946" rx="110.836" ry="64.0544" fill="white"/>
<ellipse cx="1163.16" cy="239.163" rx="110.836" ry="64.0544" fill="white"/>
<ellipse cx="20.6911" cy="83" rx="113.722" ry="83" fill="white"/>
<ellipse cx="164.556" cy="110" rx="113.722" ry="83" fill="white"/>
<ellipse cx="-94.4007" cy="124" rx="113.722" ry="83" fill="white"/>
<ellipse cx="-50.5564" cy="193" rx="113.722" ry="83" fill="white"/>
<ellipse cx="117.971" cy="193" rx="113.722" ry="83" fill="white"/>
<ellipse cx="278.278" cy="157" rx="113.722" ry="83" fill="white"/>
</svg>
